<?xml version="1.0" encoding="UTF-8" standalone="no"?>
<!-- Created with Inkscape (http://www.inkscape.org/) -->

<svg
   xmlns:dc="http://purl.org/dc/elements/1.1/"
   xmlns:cc="http://creativecommons.org/ns#"
   xmlns:rdf="http://www.w3.org/1999/02/22-rdf-syntax-ns#"
   xmlns:svg="http://www.w3.org/2000/svg"
   xmlns="http://www.w3.org/2000/svg"
   xmlns:sodipodi="http://sodipodi.sourceforge.net/DTD/sodipodi-0.dtd"
   xmlns:inkscape="http://www.inkscape.org/namespaces/inkscape"
   width="32"
   height="32"
   viewBox="0 0 8.4666667 8.4666667"
   version="1.1"
   id="svg8"
   inkscape:export-xdpi="95.999817"
   inkscape:export-ydpi="95.999817"
   inkscape:version="0.92.2 5c3e80d, 2017-08-06"
   sodipodi:docname="about.svg">
  <defs
     id="defs2" />
  <sodipodi:namedview
     id="base"
     pagecolor="#ffffff"
     bordercolor="#666666"
     borderopacity="1.0"
     inkscape:pageopacity="0.0"
     inkscape:pageshadow="2"
     inkscape:zoom="11.313709"
     inkscape:cx="-2.9325331"
     inkscape:cy="12.140282"
     inkscape:document-units="mm"
     inkscape:current-layer="layer1"
     showgrid="false"
     showborder="true"
     inkscape:pagecheckerboard="true"
     units="px"
     inkscape:window-width="1920"
     inkscape:window-height="1060"
     inkscape:window-x="0"
     inkscape:window-y="20"
     inkscape:window-maximized="0"
     showguides="true"
     inkscape:guide-bbox="true" />
  <metadata
     id="metadata5">
    <rdf:RDF>
      <cc:Work
         rdf:about="">
        <dc:format>image/svg+xml</dc:format>
        <dc:type
           rdf:resource="http://purl.org/dc/dcmitype/StillImage" />
        <dc:title />
        <cc:license
           rdf:resource="http://creativecommons.org/licenses/by/4.0/" />
        <dc:creator>
          <cc:Agent>
            <dc:title>Brandon Piatt</dc:title>
          </cc:Agent>
        </dc:creator>
        <dc:date />
      </cc:Work>
      <cc:License
         rdf:about="http://creativecommons.org/licenses/by/4.0/">
        <cc:permits
           rdf:resource="http://creativecommons.org/ns#Reproduction" />
        <cc:permits
           rdf:resource="http://creativecommons.org/ns#Distribution" />
        <cc:requires
           rdf:resource="http://creativecommons.org/ns#Notice" />
        <cc:requires
           rdf:resource="http://creativecommons.org/ns#Attribution" />
        <cc:permits
           rdf:resource="http://creativecommons.org/ns#DerivativeWorks" />
      </cc:License>
    </rdf:RDF>
  </metadata>
  <g
     inkscape:label="Layer 1"
     inkscape:groupmode="layer"
     id="layer1"
     transform="translate(0,-288.53333)">
    <path
       style="opacity:1;fill:#000000;fill-opacity:1;stroke:none;stroke-width:0.52916664;stroke-linecap:butt;stroke-linejoin:round;stroke-miterlimit:4;stroke-dasharray:none;stroke-opacity:1;paint-order:normal"
       d="m 4.2333333,288.53336 a 4.2333002,4.2333002 0 0 0 -4.233300126667,4.2333 4.2333002,4.2333002 0 0 0 4.233300126667,4.2333 4.2333002,4.2333002 0 0 0 4.2333002,-4.2333 4.2333002,4.2333002 0 0 0 -4.2333002,-4.2333 z m 0,1.16967 a 0.74487642,0.74487642 0 0 1 0.7446861,0.74524 0.74487642,0.74487642 0 0 1 -0.7446861,0.74468 0.74487642,0.74487642 0 0 1 -0.744686,-0.74468 0.74487642,0.74487642 0 0 1 0.744686,-0.74524 z m 0,1.73962 a 0.62550399,0.53064082 0 0 1 0.6256245,0.53027 v 3.32655 a 0.62550399,0.53064082 0 0 1 -0.6256245,0.53082 0.62550399,0.53064082 0 0 1 -0.6256244,-0.53082 0.62550399,0.53064082 0 0 1 5.644e-4,-0.008 v -3.30562 a 0.62550399,0.53064082 0 0 1 -5.644e-4,-0.0127 0.62550399,0.53064082 0 0 1 0.6256244,-0.53027 z"
       id="path1940"
       inkscape:connector-curvature="0" />
  </g>
</svg>
