<?xml version="1.0" encoding="UTF-8" standalone="no"?>
<!-- Created with Inkscape (http://www.inkscape.org/) -->

<svg
   xmlns:dc="http://purl.org/dc/elements/1.1/"
   xmlns:cc="http://creativecommons.org/ns#"
   xmlns:rdf="http://www.w3.org/1999/02/22-rdf-syntax-ns#"
   xmlns:svg="http://www.w3.org/2000/svg"
   xmlns="http://www.w3.org/2000/svg"
   xmlns:sodipodi="http://sodipodi.sourceforge.net/DTD/sodipodi-0.dtd"
   xmlns:inkscape="http://www.inkscape.org/namespaces/inkscape"
   width="32"
   height="32"
   viewBox="0 0 8.4666667 8.4666667"
   version="1.1"
   id="svg8"
   sodipodi:docname="palettes.svg"
   inkscape:version="0.92.2 5c3e80d, 2017-08-06"
   inkscape:export-xdpi="95.999977"
   inkscape:export-ydpi="95.999977">
  <defs
     id="defs2" />
  <sodipodi:namedview
     id="base"
     pagecolor="#ffffff"
     bordercolor="#666666"
     borderopacity="1.0"
     inkscape:pageopacity="0.0"
     inkscape:pageshadow="2"
     inkscape:zoom="5.656855"
     inkscape:cx="5.7383895"
     inkscape:cy="25.299488"
     inkscape:document-units="mm"
     inkscape:current-layer="layer1"
     showgrid="false"
     inkscape:pagecheckerboard="true"
     units="px"
     showguides="true"
     inkscape:window-width="1920"
     inkscape:window-height="1060"
     inkscape:window-x="0"
     inkscape:window-y="20"
     inkscape:window-maximized="0"
     inkscape:guide-bbox="true" />
  <metadata
     id="metadata5">
    <rdf:RDF>
      <cc:Work
         rdf:about="">
        <dc:format>image/svg+xml</dc:format>
        <dc:type
           rdf:resource="http://purl.org/dc/dcmitype/StillImage" />
        <dc:title />
        <cc:license
           rdf:resource="http://creativecommons.org/licenses/by/4.0/" />
        <dc:creator>
          <cc:Agent>
            <dc:title>Brandon Piatt</dc:title>
          </cc:Agent>
        </dc:creator>
      </cc:Work>
      <cc:License
         rdf:about="http://creativecommons.org/licenses/by/4.0/">
        <cc:permits
           rdf:resource="http://creativecommons.org/ns#Reproduction" />
        <cc:permits
           rdf:resource="http://creativecommons.org/ns#Distribution" />
        <cc:requires
           rdf:resource="http://creativecommons.org/ns#Notice" />
        <cc:requires
           rdf:resource="http://creativecommons.org/ns#Attribution" />
        <cc:permits
           rdf:resource="http://creativecommons.org/ns#DerivativeWorks" />
      </cc:License>
    </rdf:RDF>
  </metadata>
  <g
     inkscape:label="Layer 1"
     inkscape:groupmode="layer"
     id="layer1"
     transform="translate(0,-288.53333)">
    <path
       id="ellipse7522"
       style="opacity:1;fill:#000000;fill-opacity:1;stroke:none;stroke-width:0.13229167;stroke-linecap:butt;stroke-linejoin:round;stroke-miterlimit:4;stroke-dasharray:none;stroke-opacity:1;paint-order:normal"
       d="m 7.2760925,292.47402 a 0.64996585,0.65001799 44.736553 0 1 -0.8192032,-0.41692 0.64996585,0.65001799 44.736553 0 1 0.4169709,-0.81923 0.64996585,0.65001799 44.736553 0 1 0.8192105,0.41692 0.64996585,0.65001799 44.736553 0 1 -0.416984,0.81925 z m -1.1079878,-2.06158 a 0.65001822,0.64996564 89.983114 0 1 -0.8740585,0.28447 0.65001822,0.64996564 89.983114 0 1 -0.2844541,-0.87414 0.65001822,0.64996564 89.983114 0 1 0.8740718,-0.28447 0.65001822,0.64996564 89.983114 0 1 0.2844408,0.87414 z m -2.2413085,-0.67436 a 0.65001806,0.64996588 45.198289 0 1 -0.4169173,0.81921 0.65001806,0.64996588 45.198289 0 1 -0.8192606,-0.41695 0.65001806,0.64996588 45.198289 0 1 0.4169248,-0.81923 0.65001806,0.64996588 45.198289 0 1 0.8192589,0.41696 z m -1.6281076,5.41073 a 0.64996604,0.65001781 89.987253 0 1 0.874153,-0.28445 0.64996604,0.65001781 89.987253 0 1 0.2844626,0.87407 0.64996604,0.65001781 89.987253 0 1 -0.8741359,0.28445 0.64996604,0.65001781 89.987253 0 1 -0.2844797,-0.87407 z m -1.1080365,-2.06156 a 0.649966,0.65001786 89.988643 0 1 0.8192471,0.41694 0.649966,0.65001786 89.988643 0 1 -0.4169452,0.8192 0.649966,0.65001786 89.988643 0 1 -0.81925728,-0.41695 0.649966,0.65001786 89.988643 0 1 0.41696168,-0.81919 z m 0.674444,-2.24116 a 0.64996604,0.65001781 89.990529 0 1 0.2844665,0.87408 0.64996604,0.65001781 89.990529 0 1 -0.8741465,0.28443 0.64996604,0.65001781 89.990529 0 1 -0.28447234,-0.87407 0.64996604,0.65001781 89.990529 0 1 0.87415234,-0.28444 z m 2.4614446,-2.31177 c -1.1333392,-0.0245 -2.2543019,0.40659 -3.0867602,1.23897 -1.21084043,1.21074 -1.57260986,3.03206 -0.91731136,4.61397 0.6553045,1.58191 2.19851146,2.61273 3.91090996,2.61273 1.7348817,-0.0103 0.8860771,-0.77592 0.8860771,-0.77592 0,0 -1.559549,-1.29794 1.011563,-1.4976 2.4050578,-0.16301 2.3354812,-1.95958 2.3354812,-1.95958 -0.1273828,-2.23793 -1.6985136,-4.28197 -4.1399601,-4.23202 z m 0.6427644,3.52788 a 1.0414591,1.0415429 44.36871 0 1 1.0055638,0.7189 1.0414591,1.0415429 44.36871 0 1 -0.6685326,1.31296 1.0414591,1.0415429 44.36871 0 1 -1.3123937,-0.668 1.0414591,1.0415429 44.36871 0 1 0.6679764,-1.31296 1.0414591,1.0415429 44.36871 0 1 0.3074128,-0.051 z"
       inkscape:connector-curvature="0" />
  </g>
</svg>
