<?xml version="1.0" encoding="UTF-8" standalone="no"?>
<svg
   xmlns:dc="http://purl.org/dc/elements/1.1/"
   xmlns:cc="http://creativecommons.org/ns#"
   xmlns:rdf="http://www.w3.org/1999/02/22-rdf-syntax-ns#"
   xmlns:svg="http://www.w3.org/2000/svg"
   xmlns="http://www.w3.org/2000/svg"
   xmlns:xlink="http://www.w3.org/1999/xlink"
   xmlns:sodipodi="http://sodipodi.sourceforge.net/DTD/sodipodi-0.dtd"
   xmlns:inkscape="http://www.inkscape.org/namespaces/inkscape"
   id="svg8"
   version="1.1"
   viewBox="0 0 8.4666667 8.4666667"
   height="32"
   width="32"
   sodipodi:docname="presplash.svg"
   inkscape:version="0.92.2 5c3e80d, 2017-08-06">
  <sodipodi:namedview
     pagecolor="#ffffff"
     bordercolor="#666666"
     borderopacity="1"
     objecttolerance="10"
     gridtolerance="10"
     guidetolerance="10"
     inkscape:pageopacity="0"
     inkscape:pageshadow="2"
     inkscape:window-width="958"
     inkscape:window-height="1058"
     id="namedview956"
     showgrid="false"
     inkscape:pagecheckerboard="true"
     inkscape:zoom="6.8046876"
     inkscape:cx="16.449096"
     inkscape:cy="18.927406"
     inkscape:window-x="960"
     inkscape:window-y="20"
     inkscape:window-maximized="0"
     inkscape:current-layer="svg8" />
  <defs
     id="defs2">
    <linearGradient
       inkscape:collect="always"
       id="linearGradient1047">
      <stop
         style="stop-color:#ffffff;stop-opacity:1"
         offset="0"
         id="stop1043" />
      <stop
         style="stop-color:#000000;stop-opacity:0"
         offset="1"
         id="stop1045" />
    </linearGradient>
    <linearGradient
       id="linearGradient1055">
      <stop
         id="stop1051"
         offset="0"
         style="stop-color:#9d5e3b;stop-opacity:1" />
      <stop
         id="stop1053"
         offset="1"
         style="stop-color:#e9b287;stop-opacity:1" />
    </linearGradient>
    <linearGradient
       id="linearGradient852">
      <stop
         id="stop848"
         offset="0"
         style="stop-color:#ffffff;stop-opacity:0.29411766" />
      <stop
         id="stop850"
         offset="1"
         style="stop-color:#000000;stop-opacity:0.29411766" />
    </linearGradient>
    <linearGradient
       id="linearGradient859">
      <stop
         id="stop855"
         offset="0"
         style="stop-color:#c87137;stop-opacity:1" />
      <stop
         id="stop857"
         offset="1"
         style="stop-color:#e9c6af;stop-opacity:1" />
    </linearGradient>
    <linearGradient
       gradientTransform="matrix(0.99131101,0,0,0.99123139,0.03678282,2.5677229)"
       gradientUnits="userSpaceOnUse"
       y2="288.84348"
       x2="8.2608957"
       y1="296.89911"
       x1="0.25301754"
       id="linearGradient861"
       xlink:href="#linearGradient859" />
    <radialGradient
       gradientUnits="userSpaceOnUse"
       gradientTransform="matrix(0.59300737,-0.34234526,0.44444754,0.76974433,-127.03113,68.659075)"
       r="2.2990246"
       fy="290.75308"
       fx="4.9462008"
       cy="290.75308"
       cx="4.9462008"
       id="radialGradient839"
       xlink:href="#linearGradient852" />
    <linearGradient
       gradientTransform="matrix(0.26228437,0,0,0.2622633,0.03678282,288.57102)"
       gradientUnits="userSpaceOnUse"
       y2="1.1721871"
       x2="31.222284"
       y1="31.618677"
       x1="0.95628679"
       id="linearGradient1057"
       xlink:href="#linearGradient1055" />
    <linearGradient
       inkscape:collect="always"
       xlink:href="#linearGradient1047"
       id="linearGradient1051"
       x1="5.357574"
       y1="5.8534317"
       x2="5.357574"
       y2="4.1944509"
       gradientUnits="userSpaceOnUse" />
    <linearGradient
       inkscape:collect="always"
       xlink:href="#linearGradient1047"
       id="linearGradient1074"
       gradientUnits="userSpaceOnUse"
       x1="5.357574"
       y1="5.8534317"
       x2="5.357574"
       y2="4.1944509" />
    <linearGradient
       inkscape:collect="always"
       xlink:href="#linearGradient1047"
       id="linearGradient1076"
       gradientUnits="userSpaceOnUse"
       x1="5.357574"
       y1="5.8534317"
       x2="5.357574"
       y2="4.1944509" />
    <linearGradient
       inkscape:collect="always"
       xlink:href="#linearGradient1047"
       id="linearGradient1078"
       gradientUnits="userSpaceOnUse"
       x1="5.357574"
       y1="5.8534317"
       x2="5.357574"
       y2="4.1944509" />
    <linearGradient
       inkscape:collect="always"
       xlink:href="#linearGradient1047"
       id="linearGradient1080"
       gradientUnits="userSpaceOnUse"
       x1="5.357574"
       y1="5.8534317"
       x2="5.357574"
       y2="4.1944509" />
    <linearGradient
       inkscape:collect="always"
       xlink:href="#linearGradient1047"
       id="linearGradient1082"
       gradientUnits="userSpaceOnUse"
       x1="5.357574"
       y1="5.8534317"
       x2="5.357574"
       y2="4.1944509" />
    <linearGradient
       inkscape:collect="always"
       xlink:href="#linearGradient1047"
       id="linearGradient1084"
       gradientUnits="userSpaceOnUse"
       x1="5.357574"
       y1="5.8534317"
       x2="5.357574"
       y2="4.1944509" />
    <linearGradient
       inkscape:collect="always"
       xlink:href="#linearGradient1047"
       id="linearGradient1086"
       gradientUnits="userSpaceOnUse"
       x1="5.357574"
       y1="5.8534317"
       x2="5.357574"
       y2="4.1944509" />
    <linearGradient
       inkscape:collect="always"
       xlink:href="#linearGradient1047"
       id="linearGradient1088"
       gradientUnits="userSpaceOnUse"
       x1="5.357574"
       y1="5.8534317"
       x2="5.357574"
       y2="4.1944509" />
    <linearGradient
       inkscape:collect="always"
       xlink:href="#linearGradient1047"
       id="linearGradient1090"
       gradientUnits="userSpaceOnUse"
       x1="5.357574"
       y1="5.8534317"
       x2="5.357574"
       y2="4.1944509" />
    <linearGradient
       inkscape:collect="always"
       xlink:href="#linearGradient1047"
       id="linearGradient1092"
       gradientUnits="userSpaceOnUse"
       x1="5.357574"
       y1="5.8534317"
       x2="5.357574"
       y2="4.1944509" />
  </defs>
  <metadata
     id="metadata5">
    <rdf:RDF>
      <cc:Work
         rdf:about="">
        <dc:format>image/svg+xml</dc:format>
        <dc:type
           rdf:resource="http://purl.org/dc/dcmitype/StillImage" />
        <dc:title />
        <cc:license
           rdf:resource="http://creativecommons.org/licenses/by/4.0/" />
        <dc:creator>
          <cc:Agent>
            <dc:title>Brandon Piatt</dc:title>
          </cc:Agent>
        </dc:creator>
      </cc:Work>
      <cc:License
         rdf:about="http://creativecommons.org/licenses/by/4.0/">
        <cc:permits
           rdf:resource="http://creativecommons.org/ns#Reproduction" />
        <cc:permits
           rdf:resource="http://creativecommons.org/ns#Distribution" />
        <cc:requires
           rdf:resource="http://creativecommons.org/ns#Notice" />
        <cc:requires
           rdf:resource="http://creativecommons.org/ns#Attribution" />
        <cc:permits
           rdf:resource="http://creativecommons.org/ns#DerivativeWorks" />
      </cc:License>
    </rdf:RDF>
  </metadata>
  <g
     transform="matrix(0.25474115,0,0,0.25474115,0.39564696,-70.354202)"
     id="layer1">
    <path
       id="path1447"
       d="m 4.3209315,288.91473 c -1.0687749,-0.0232 -2.1257012,0.38344 -2.9107416,1.1684 -1.14187911,1.14178 -1.48321266,2.8591 -0.86523112,4.35091 0.61797852,1.49181 2.07351512,2.46436 3.68837392,2.46436 1.636062,-0.01 0.8355192,-0.73198 0.8355192,-0.73198 0,0 -1.470813,-1.22393 0.9538546,-1.41223 2.2680607,-0.15363 2.2027788,-1.84814 2.2027788,-1.84814 2e-7,-0.88602 -0.2925051,-1.72378 -0.803246,-2.40186 -0.4200657,-0.55771 -0.416821,-1.25681 -1.0901194,-1.53568 -0.2320275,-0.096 -1.1831535,0.063 -1.4230975,0.0128 -0.2421924,-0.0508 -0.3440547,-0.0609 -0.5880909,-0.0661 z m 1.9547264,3.68871 c 0.2267037,0.26763 0.2956255,0.65113 0.1455978,0.99412 -0.2101677,0.48013 -0.7698329,0.69893 -1.249949,0.48868 -0.4798749,-0.21015 -0.6986384,-0.7694 -0.4887095,-1.24935 0.3153723,-0.14749 1.4937835,-0.31121 1.5930607,-0.23345 z"
       style="opacity:1;fill:url(#linearGradient861);fill-opacity:1;stroke:url(#linearGradient1057);stroke-width:0.26458332;stroke-linecap:butt;stroke-linejoin:round;stroke-miterlimit:4;stroke-dasharray:none;stroke-opacity:1;paint-order:normal"
       inkscape:connector-curvature="0" />
    <ellipse
       ry="0.63274211"
       rx="0.63271224"
       cy="133.73602"
       cx="-259.13815"
       id="circle826"
       style="opacity:1;fill:#008000;fill-opacity:1;stroke:#005800;stroke-width:0.13229167;stroke-linecap:butt;stroke-linejoin:round;stroke-miterlimit:4;stroke-dasharray:none;stroke-opacity:1;paint-order:normal"
       transform="matrix(0.45361282,-0.89119886,0.89122831,0.45355496,0,0)" />
    <ellipse
       ry="0.63274771"
       rx="0.63270664"
       transform="matrix(-0.30947334,-0.95090812,0.95092275,-0.30942839,0,0)"
       style="opacity:1;fill:#ffff00;fill-opacity:1;stroke:#d8d800;stroke-width:0.13229167;stroke-linecap:butt;stroke-linejoin:round;stroke-miterlimit:4;stroke-dasharray:none;stroke-opacity:1;paint-order:normal"
       id="circle828"
       cx="-279.85382"
       cy="-89.53418" />
    <ellipse
       ry="0.63271224"
       rx="0.63274211"
       cy="-262.04691"
       cx="-136.6449"
       id="circle830"
       style="opacity:1;fill:#ff0000;fill-opacity:1;stroke:#d80000;stroke-width:0.13229167;stroke-linecap:butt;stroke-linejoin:round;stroke-miterlimit:4;stroke-dasharray:none;stroke-opacity:1;paint-order:normal"
       transform="matrix(-0.89122828,-0.45355502,0.45361288,-0.89119883,0,0)" />
    <rect
       transform="matrix(0.87397409,0.48597252,-0.51415983,0.85769439,0,0)"
       y="253.68164"
       x="154.04001"
       height="1.3711199"
       width="0.46570876"
       id="rect1470"
       style="opacity:1;fill:#000000;fill-opacity:1;stroke:none;stroke-width:0.96641946;stroke-linecap:butt;stroke-linejoin:round;stroke-miterlimit:4;stroke-dasharray:none;stroke-opacity:1;paint-order:normal" />
    <rect
       transform="matrix(0.87397409,0.48597252,-0.51415983,0.85769439,0,0)"
       ry="0.23715807"
       y="255.05894"
       x="154.06705"
       height="3.45065"
       width="0.4116323"
       id="rect1474"
       style="opacity:1;fill:none;fill-opacity:1;stroke:#000000;stroke-width:0.50343513;stroke-linecap:butt;stroke-linejoin:round;stroke-miterlimit:4;stroke-dasharray:none;stroke-opacity:1;paint-order:normal" />
    <ellipse
       ry="0.94883496"
       rx="0.94888669"
       transform="matrix(0.91610724,0.40093332,-0.40098738,0.91608358,0,0)"
       style="opacity:1;fill:#0000ff;fill-opacity:1;stroke:none;stroke-width:0.56879199;stroke-linecap:butt;stroke-linejoin:round;stroke-miterlimit:4;stroke-dasharray:none;stroke-opacity:1;paint-order:normal"
       id="circle858"
       cx="121.75164"
       cy="263.90262" />
    <ellipse
       ry="0.94883496"
       rx="0.94888669"
       cy="263.90262"
       cx="121.75164"
       id="circle860"
       style="opacity:1;fill:#0000ff;fill-opacity:1;stroke:#0000d8;stroke-width:0.13229167;stroke-linecap:butt;stroke-linejoin:round;stroke-miterlimit:4;stroke-dasharray:none;stroke-opacity:1;paint-order:normal"
       transform="matrix(0.91610724,0.40093332,-0.40098738,0.91608358,0,0)" />
    <path
       id="circle866"
       d="m 3.5290664,290.75536 c -0.3323069,0.10813 -0.6893619,-0.0736 -0.7975006,-0.40585 -0.1081408,-0.33228 0.073581,-0.68931 0.4058881,-0.79744 0.2197682,-0.0715 0.4503588,-0.0163 0.6126186,0.12549 -0.3526979,0.44705 -0.039841,1.01489 -0.2210061,1.0778 z"
       style="opacity:1;fill:#00ffff;fill-opacity:1;stroke:#00d8d8;stroke-width:0.13229167;stroke-linecap:butt;stroke-linejoin:round;stroke-miterlimit:4;stroke-dasharray:none;stroke-opacity:1;paint-order:normal"
       inkscape:connector-curvature="0" />
    <path
       id="circle868"
       d="m 7.1953388,292.62122 c -0.2440933,0.0794 -0.5015386,0.002 -0.66388,-0.17567 0.2150108,-0.29218 0.5980325,-0.64718 0.8178765,-0.95323 0.1149426,0.0762 0.2059132,0.1902 0.2518908,0.33147 0.1081406,0.33228 -0.073581,0.6893 -0.4058873,0.79743 z"
       style="opacity:1;fill:#800080;fill-opacity:1;stroke:#580058;stroke-width:0.13229167;stroke-linecap:butt;stroke-linejoin:round;stroke-miterlimit:4;stroke-dasharray:none;stroke-opacity:1;paint-order:normal"
       inkscape:connector-curvature="0" />
    <path
       id="path1459"
       d="m 7.2417097,291.75867 a 1.9746991,2.050346 89.999995 0 1 -2.8008248,0.72278 1.9746991,2.050346 89.999995 0 1 -0.7504786,-2.69749 1.9746991,2.050346 89.999995 0 1 2.8008251,-0.72278 1.9746991,2.050346 89.999995 0 1 0.7504783,2.69749 z"
       style="opacity:1;fill:url(#radialGradient839);fill-opacity:1;stroke:#000000;stroke-width:0.46448228;stroke-linecap:butt;stroke-linejoin:round;stroke-miterlimit:4;stroke-dasharray:none;stroke-opacity:1;paint-order:normal"
       inkscape:connector-curvature="0" />
  </g>
  <g
     aria-label="Loading..."
     style="font-style:normal;font-weight:normal;font-size:1.0583334px;line-height:1.25;font-family:sans-serif;letter-spacing:0px;word-spacing:0px;fill:#000000;fill-opacity:1;stroke:none;stroke-width:0.26458332"
     id="text960"
     transform="matrix(1.0189646,0,0,1.0189646,-0.08028345,-0.08028351)">
    <path
       d="m 3.0047674,3.7537761 h 0.1043864 v 0.6836792 h 0.3756877 v 0.08785 H 3.0047674 Z"
       style="font-style:normal;font-variant:normal;font-weight:normal;font-stretch:normal;font-size:1.0583334px;font-family:'DejaVu Sans';-inkscape-font-specification:'DejaVu Sans';fill:#ff0000;stroke-width:0.26458332"
       id="path992"
       inkscape:connector-curvature="0" />
    <path
       d="m 3.7954168,4.0131918 q -0.076481,0 -0.1209228,0.059945 -0.044442,0.059428 -0.044442,0.1632975 0,0.1038696 0.043925,0.1638143 0.044442,0.059428 0.1214396,0.059428 0.075964,0 0.1204061,-0.059945 0.044442,-0.059945 0.044442,-0.1632975 0,-0.1028361 -0.044442,-0.1627808 -0.044442,-0.060461 -0.1204059,-0.060461 z m 0,-0.080615 q 0.1240235,0 0.1948202,0.080615 0.070797,0.080615 0.070797,0.2232422 0,0.1421102 -0.070797,0.2232422 -0.070797,0.080615 -0.1948202,0.080615 -0.1245402,0 -0.1953369,-0.080615 -0.07028,-0.081132 -0.07028,-0.2232422 0,-0.142627 0.07028,-0.2232422 0.070797,-0.080615 0.1953369,-0.080615 z"
       style="font-style:normal;font-variant:normal;font-weight:normal;font-stretch:normal;font-size:1.0583334px;font-family:'DejaVu Sans';-inkscape-font-specification:'DejaVu Sans';fill:#ff7f00;fill-opacity:1;stroke-width:0.26458332"
       id="path994"
       inkscape:connector-curvature="0" />
    <path
       d="m 4.4811632,4.2343669 q -0.1152385,0 -0.1596802,0.026355 -0.044442,0.026355 -0.044442,0.089917 0,0.050643 0.033073,0.080615 0.03359,0.029456 0.09095,0.029456 0.079065,0 0.1266073,-0.05581 0.048059,-0.056327 0.048059,-0.1493449 V 4.234368 Z m 0.1896525,-0.039274 v 0.3302125 h -0.095085 v -0.08785 q -0.032556,0.05271 -0.081132,0.078031 -0.048576,0.024805 -0.1188558,0.024805 -0.088883,0 -0.1415935,-0.049609 -0.052193,-0.050126 -0.052193,-0.133842 0,-0.097669 0.065112,-0.1472778 0.065629,-0.049609 0.195337,-0.049609 h 0.1333252 v -0.0093 q 0,-0.065629 -0.043408,-0.1012858 -0.042891,-0.036173 -0.1209229,-0.036173 -0.049609,0 -0.096635,0.011886 -0.047026,0.011886 -0.090434,0.035657 v -0.08785 q 0.052193,-0.020154 0.1012858,-0.029972 0.049093,-0.010335 0.095601,-0.010335 0.1255738,0 0.1875855,0.065112 0.062012,0.065112 0.062012,0.1974039 z"
       style="font-style:normal;font-variant:normal;font-weight:normal;font-stretch:normal;font-size:1.0583334px;font-family:'DejaVu Sans';-inkscape-font-specification:'DejaVu Sans';fill:#ffff00;fill-opacity:1;stroke-width:0.26458332"
       id="path996"
       inkscape:connector-curvature="0" />
    <path
       d="M 5.2480414,4.0343791 V 3.7212199 h 0.095085 v 0.8040854 h -0.095085 v -0.086816 q -0.029972,0.051676 -0.075964,0.076998 -0.045475,0.024805 -0.1095541,0.024805 -0.1049031,0 -0.171049,-0.083716 -0.065629,-0.083716 -0.065629,-0.2201416 0,-0.1364258 0.065629,-0.2201416 0.066146,-0.083716 0.171049,-0.083716 0.064079,0 0.1095541,0.025321 0.045992,0.024805 0.075964,0.076481 z M 4.9240302,4.236434 q 0,0.1049032 0.042891,0.1648478 0.043408,0.059428 0.1188558,0.059428 0.075448,0 0.1188558,-0.059428 0.043408,-0.059945 0.043408,-0.1648478 0,-0.1049032 -0.043408,-0.1643311 -0.043408,-0.059945 -0.1188558,-0.059945 -0.075448,0 -0.1188558,0.059945 -0.042891,0.059428 -0.042891,0.1643311 z"
       style="font-style:normal;font-variant:normal;font-weight:normal;font-stretch:normal;font-size:1.0583334px;font-family:'DejaVu Sans';-inkscape-font-specification:'DejaVu Sans';fill:#7fff00;fill-opacity:1;stroke-width:0.26458332"
       id="path998"
       inkscape:connector-curvature="0" />
    <path
       d="m 5.5389798,3.9465292 h 0.095085 v 0.5787761 h -0.095085 z m 0,-0.2253093 h 0.095085 V 3.841626 h -0.095085 z"
       style="font-style:normal;font-variant:normal;font-weight:normal;font-stretch:normal;font-size:1.0583334px;font-family:'DejaVu Sans';-inkscape-font-specification:'DejaVu Sans';fill:#00ff00;fill-opacity:1;stroke-width:0.26458332"
       id="path1000"
       inkscape:connector-curvature="0" />
    <path
       d="M 6.3136095,4.1759726 V 4.5253053 H 6.2185249 V 4.1790732 q 0,-0.082166 -0.032039,-0.12299 -0.032039,-0.040824 -0.096118,-0.040824 -0.076998,0 -0.1214396,0.049093 -0.044442,0.049093 -0.044442,0.1338419 V 4.5253053 H 5.8288846 V 3.9465292 h 0.095601 v 0.089917 q 0.034106,-0.052193 0.080098,-0.078031 0.046509,-0.025838 0.1069703,-0.025838 0.099735,0 0.1508952,0.062012 0.05116,0.061495 0.05116,0.1813834 z"
       style="font-style:normal;font-variant:normal;font-weight:normal;font-stretch:normal;font-size:1.0583334px;font-family:'DejaVu Sans';-inkscape-font-specification:'DejaVu Sans';fill:#00ff7f;fill-opacity:1;stroke-width:0.26458332"
       id="path1002"
       inkscape:connector-curvature="0" />
    <path
       d="m 6.8851509,4.2291993 q 0,-0.1033529 -0.042891,-0.160197 -0.042375,-0.056844 -0.1193726,-0.056844 -0.076481,0 -0.1193725,0.056844 -0.042375,0.056844 -0.042375,0.160197 0,0.1028361 0.042375,0.1596802 0.042891,0.056844 0.1193725,0.056844 0.076998,0 0.1193726,-0.056844 0.042891,-0.056844 0.042891,-0.1596802 z m 0.095085,0.2242757 q 0,0.1477946 -0.065629,0.2196249 -0.065629,0.072347 -0.2010213,0.072347 -0.050126,0 -0.094568,-0.00775 -0.044442,-0.00723 -0.0863,-0.022738 V 4.622457 q 0.041858,0.022738 0.082682,0.03359 0.040824,0.010852 0.083199,0.010852 0.093534,0 0.1400431,-0.049093 0.046509,-0.048576 0.046509,-0.1472779 v -0.047026 q -0.029456,0.05116 -0.075448,0.076481 -0.045992,0.025322 -0.1100708,0.025322 -0.1064534,0 -0.1715657,-0.081132 -0.065112,-0.081132 -0.065112,-0.214974 0,-0.1343587 0.065112,-0.2154907 0.065112,-0.081132 0.1715657,-0.081132 0.064079,0 0.1100708,0.025321 0.045992,0.025322 0.075448,0.076481 v -0.08785 h 0.095085 z"
       style="font-style:normal;font-variant:normal;font-weight:normal;font-stretch:normal;font-size:1.0583334px;font-family:'DejaVu Sans';-inkscape-font-specification:'DejaVu Sans';fill:#00ffff;stroke-width:0.26458332"
       id="path1004"
       inkscape:connector-curvature="0" />
    <path
       d="M 7.1895252,4.3940471 H 7.2985625 V 4.5253053 H 7.1895252 Z"
       style="font-style:normal;font-variant:normal;font-weight:normal;font-stretch:normal;font-size:1.0583334px;font-family:'DejaVu Sans';-inkscape-font-specification:'DejaVu Sans';fill:#007fff;fill-opacity:1;stroke-width:0.26458332"
       id="path1006"
       inkscape:connector-curvature="0" />
    <path
       d="M 7.5264555,4.3940471 H 7.6354927 V 4.5253053 H 7.5264555 Z"
       style="font-style:normal;font-variant:normal;font-weight:normal;font-stretch:normal;font-size:1.0583334px;font-family:'DejaVu Sans';-inkscape-font-specification:'DejaVu Sans';fill:#0000ff;fill-opacity:1;stroke-width:0.26458332"
       id="path1008"
       inkscape:connector-curvature="0" />
    <path
       d="M 7.8633857,4.3940471 H 7.972423 V 4.5253053 H 7.8633857 Z"
       style="font-style:normal;font-variant:normal;font-weight:normal;font-stretch:normal;font-size:1.0583334px;font-family:'DejaVu Sans';-inkscape-font-specification:'DejaVu Sans';fill:#8000ff;fill-opacity:1;stroke-width:0.26458332"
       id="path1010"
       inkscape:connector-curvature="0" />
  </g>
  <g
     id="g1041"
     style="font-style:normal;font-weight:normal;font-size:1.0583334px;line-height:1.25;font-family:sans-serif;letter-spacing:0px;word-spacing:0px;fill:url(#linearGradient1051);fill-opacity:1;stroke:none;stroke-width:0.26458332"
     aria-label="Loading..."
     transform="matrix(1.0189646,0,0,1.0189646,-0.08028345,-0.08028351)">
    <path
       id="path1021"
       style="font-style:normal;font-variant:normal;font-weight:normal;font-stretch:normal;font-size:1.0583334px;font-family:'DejaVu Sans';-inkscape-font-specification:'DejaVu Sans';fill:url(#linearGradient1074);fill-opacity:1;stroke-width:0.26458332"
       d="m 3.0047674,3.7537761 h 0.1043864 v 0.6836792 h 0.3756877 v 0.08785 H 3.0047674 Z"
       inkscape:connector-curvature="0" />
    <path
       id="path1023"
       style="font-style:normal;font-variant:normal;font-weight:normal;font-stretch:normal;font-size:1.0583334px;font-family:'DejaVu Sans';-inkscape-font-specification:'DejaVu Sans';fill:url(#linearGradient1076);fill-opacity:1;stroke-width:0.26458332"
       d="m 3.7954168,4.0131918 q -0.076481,0 -0.1209228,0.059945 -0.044442,0.059428 -0.044442,0.1632975 0,0.1038696 0.043925,0.1638143 0.044442,0.059428 0.1214396,0.059428 0.075964,0 0.1204061,-0.059945 0.044442,-0.059945 0.044442,-0.1632975 0,-0.1028361 -0.044442,-0.1627808 -0.044442,-0.060461 -0.1204059,-0.060461 z m 0,-0.080615 q 0.1240235,0 0.1948202,0.080615 0.070797,0.080615 0.070797,0.2232422 0,0.1421102 -0.070797,0.2232422 -0.070797,0.080615 -0.1948202,0.080615 -0.1245402,0 -0.1953369,-0.080615 -0.07028,-0.081132 -0.07028,-0.2232422 0,-0.142627 0.07028,-0.2232422 0.070797,-0.080615 0.1953369,-0.080615 z"
       inkscape:connector-curvature="0" />
    <path
       id="path1025"
       style="font-style:normal;font-variant:normal;font-weight:normal;font-stretch:normal;font-size:1.0583334px;font-family:'DejaVu Sans';-inkscape-font-specification:'DejaVu Sans';fill:url(#linearGradient1078);fill-opacity:1;stroke-width:0.26458332"
       d="m 4.4811632,4.2343669 q -0.1152385,0 -0.1596802,0.026355 -0.044442,0.026355 -0.044442,0.089917 0,0.050643 0.033073,0.080615 0.03359,0.029456 0.09095,0.029456 0.079065,0 0.1266073,-0.05581 0.048059,-0.056327 0.048059,-0.1493449 V 4.234368 Z m 0.1896525,-0.039274 v 0.3302125 h -0.095085 v -0.08785 q -0.032556,0.05271 -0.081132,0.078031 -0.048576,0.024805 -0.1188558,0.024805 -0.088883,0 -0.1415935,-0.049609 -0.052193,-0.050126 -0.052193,-0.133842 0,-0.097669 0.065112,-0.1472778 0.065629,-0.049609 0.195337,-0.049609 h 0.1333252 v -0.0093 q 0,-0.065629 -0.043408,-0.1012858 -0.042891,-0.036173 -0.1209229,-0.036173 -0.049609,0 -0.096635,0.011886 -0.047026,0.011886 -0.090434,0.035657 v -0.08785 q 0.052193,-0.020154 0.1012858,-0.029972 0.049093,-0.010335 0.095601,-0.010335 0.1255738,0 0.1875855,0.065112 0.062012,0.065112 0.062012,0.1974039 z"
       inkscape:connector-curvature="0" />
    <path
       id="path1027"
       style="font-style:normal;font-variant:normal;font-weight:normal;font-stretch:normal;font-size:1.0583334px;font-family:'DejaVu Sans';-inkscape-font-specification:'DejaVu Sans';fill:url(#linearGradient1080);fill-opacity:1;stroke-width:0.26458332"
       d="M 5.2480414,4.0343791 V 3.7212199 h 0.095085 v 0.8040854 h -0.095085 v -0.086816 q -0.029972,0.051676 -0.075964,0.076998 -0.045475,0.024805 -0.1095541,0.024805 -0.1049031,0 -0.171049,-0.083716 -0.065629,-0.083716 -0.065629,-0.2201416 0,-0.1364258 0.065629,-0.2201416 0.066146,-0.083716 0.171049,-0.083716 0.064079,0 0.1095541,0.025321 0.045992,0.024805 0.075964,0.076481 z M 4.9240302,4.236434 q 0,0.1049032 0.042891,0.1648478 0.043408,0.059428 0.1188558,0.059428 0.075448,0 0.1188558,-0.059428 0.043408,-0.059945 0.043408,-0.1648478 0,-0.1049032 -0.043408,-0.1643311 -0.043408,-0.059945 -0.1188558,-0.059945 -0.075448,0 -0.1188558,0.059945 -0.042891,0.059428 -0.042891,0.1643311 z"
       inkscape:connector-curvature="0" />
    <path
       id="path1029"
       style="font-style:normal;font-variant:normal;font-weight:normal;font-stretch:normal;font-size:1.0583334px;font-family:'DejaVu Sans';-inkscape-font-specification:'DejaVu Sans';fill:url(#linearGradient1082);fill-opacity:1;stroke-width:0.26458332"
       d="m 5.5389798,3.9465292 h 0.095085 v 0.5787761 h -0.095085 z m 0,-0.2253093 h 0.095085 V 3.841626 h -0.095085 z"
       inkscape:connector-curvature="0" />
    <path
       id="path1031"
       style="font-style:normal;font-variant:normal;font-weight:normal;font-stretch:normal;font-size:1.0583334px;font-family:'DejaVu Sans';-inkscape-font-specification:'DejaVu Sans';fill:url(#linearGradient1084);fill-opacity:1;stroke-width:0.26458332"
       d="M 6.3136095,4.1759726 V 4.5253053 H 6.2185249 V 4.1790732 q 0,-0.082166 -0.032039,-0.12299 -0.032039,-0.040824 -0.096118,-0.040824 -0.076998,0 -0.1214396,0.049093 -0.044442,0.049093 -0.044442,0.1338419 V 4.5253053 H 5.8288846 V 3.9465292 h 0.095601 v 0.089917 q 0.034106,-0.052193 0.080098,-0.078031 0.046509,-0.025838 0.1069703,-0.025838 0.099735,0 0.1508952,0.062012 0.05116,0.061495 0.05116,0.1813834 z"
       inkscape:connector-curvature="0" />
    <path
       id="path1033"
       style="font-style:normal;font-variant:normal;font-weight:normal;font-stretch:normal;font-size:1.0583334px;font-family:'DejaVu Sans';-inkscape-font-specification:'DejaVu Sans';fill:url(#linearGradient1086);fill-opacity:1;stroke-width:0.26458332"
       d="m 6.8851509,4.2291993 q 0,-0.1033529 -0.042891,-0.160197 -0.042375,-0.056844 -0.1193726,-0.056844 -0.076481,0 -0.1193725,0.056844 -0.042375,0.056844 -0.042375,0.160197 0,0.1028361 0.042375,0.1596802 0.042891,0.056844 0.1193725,0.056844 0.076998,0 0.1193726,-0.056844 0.042891,-0.056844 0.042891,-0.1596802 z m 0.095085,0.2242757 q 0,0.1477946 -0.065629,0.2196249 -0.065629,0.072347 -0.2010213,0.072347 -0.050126,0 -0.094568,-0.00775 -0.044442,-0.00723 -0.0863,-0.022738 V 4.622457 q 0.041858,0.022738 0.082682,0.03359 0.040824,0.010852 0.083199,0.010852 0.093534,0 0.1400431,-0.049093 0.046509,-0.048576 0.046509,-0.1472779 v -0.047026 q -0.029456,0.05116 -0.075448,0.076481 -0.045992,0.025322 -0.1100708,0.025322 -0.1064534,0 -0.1715657,-0.081132 -0.065112,-0.081132 -0.065112,-0.214974 0,-0.1343587 0.065112,-0.2154907 0.065112,-0.081132 0.1715657,-0.081132 0.064079,0 0.1100708,0.025321 0.045992,0.025322 0.075448,0.076481 v -0.08785 h 0.095085 z"
       inkscape:connector-curvature="0" />
    <path
       id="path1035"
       style="font-style:normal;font-variant:normal;font-weight:normal;font-stretch:normal;font-size:1.0583334px;font-family:'DejaVu Sans';-inkscape-font-specification:'DejaVu Sans';fill:url(#linearGradient1088);fill-opacity:1;stroke-width:0.26458332"
       d="M 7.1895252,4.3940471 H 7.2985625 V 4.5253053 H 7.1895252 Z"
       inkscape:connector-curvature="0" />
    <path
       id="path1037"
       style="font-style:normal;font-variant:normal;font-weight:normal;font-stretch:normal;font-size:1.0583334px;font-family:'DejaVu Sans';-inkscape-font-specification:'DejaVu Sans';fill:url(#linearGradient1090);fill-opacity:1;stroke-width:0.26458332"
       d="M 7.5264555,4.3940471 H 7.6354927 V 4.5253053 H 7.5264555 Z"
       inkscape:connector-curvature="0" />
    <path
       id="path1039"
       style="font-style:normal;font-variant:normal;font-weight:normal;font-stretch:normal;font-size:1.0583334px;font-family:'DejaVu Sans';-inkscape-font-specification:'DejaVu Sans';fill:url(#linearGradient1092);fill-opacity:1;stroke-width:0.26458332"
       d="M 7.8633857,4.3940471 H 7.972423 V 4.5253053 H 7.8633857 Z"
       inkscape:connector-curvature="0" />
  </g>
</svg>
